<svg viewBox="0 0 96 96" xmlns="http://www.w3.org/2000/svg"><g fill="#7e87ad"><rect height="46.32" rx="3.74" width="16.98" x="38.32" y="46.85"/><path d="m82.92 76.25-6.71 6.75a3.74 3.74 0 0 1 -5.29 0l-67.38-67.41a8.49 8.49 0 0 1 12-12l67.38 67.41a3.72 3.72 0 0 1 0 5.25z"/><rect height="46.41" rx="3.74" transform="matrix(0 -1 1 0 23.08 116.78)" width="16.98" x="61.44" y="23.65"/></g><path d="m5.9 46.85h19.07v42h-19.07z" fill="#b1b9d0"/><path d="m8.73 72.62h13.41v19.07h-13.41z" fill="#7e87ad" transform="matrix(0 1 -1 0 97.59 66.72)"/><rect fill="#37375c" height="25.67" rx="2.59" transform="matrix(0 1 -1 0 107.38 76.52)" width="6.18" x="12.34" y="79.11"/><rect fill="#46507a" height="18.31" rx="2.98" transform="matrix(0 1 -1 0 107.38 76.52)" width="6.18" x="12.34" y="82.79"/><rect fill="#64739d" height="7.4" rx="2.96" transform="matrix(0 1 -1 0 107.38 76.52)" width="6.18" x="12.34" y="88.25"/><path d="m87.73 46.85a40.92 40.92 0 1 1 -40.92-40.91 40.92 40.92 0 0 1 40.92 40.91z" fill="#cad2e4"/><circle cx="46.81" cy="46.85" fill="#b1b9d0" r="27.93"/><path d="m85 32h-38.19v-19.06h22.89a41 41 0 0 1 15.3 19.06z" fill="#939bbc"/><circle cx="46.81" cy="46.85" fill="#7e87ad" r="21.85"/><path d="m37.87 20.41a27.9 27.9 0 0 0 -8.44 4.64 3 3 0 0 0 .62 5 3 3 0 0 0 3.25-.3 21.87 21.87 0 0 1 6.56-3.57 2.93 2.93 0 0 0 1.91-3.32 3 3 0 0 0 -3.9-2.45zm33.01 28.7a3 3 0 0 0 -2.73 2.4 21.83 21.83 0 0 1 -39.45 7.54 3 3 0 0 0 -5 3.4 27.9 27.9 0 0 0 50.45-9.82 3 3 0 0 0 -3.27-3.52z" fill="#98a0bc"/><path d="m62.7 46.85a15.88 15.88 0 1 1 -14.89-15.85 15.91 15.91 0 0 1 14.89 15.85z" fill="#37375c"/><path d="m58.17 46.85a11.36 11.36 0 1 1 -10.65-11.34 11.36 11.36 0 0 1 10.65 11.34z" fill="#2d283e"/><path d="m33.81 37.74a15.87 15.87 0 0 1 26 0 3 3 0 0 0 2.44 1.31 2.93 2.93 0 0 0 2.55-4.57 21.82 21.82 0 0 0 -36 0 2.93 2.93 0 0 0 2.44 4.57 3 3 0 0 0 2.57-1.31z" fill="#606e94"/><path d="m37.11 27.31a3 3 0 0 0 2.64 5.33 15.76 15.76 0 0 1 12.87-.56 3 3 0 0 0 3.83-1.48 2.94 2.94 0 0 0 -1.51-4 21.65 21.65 0 0 0 -17.83.71z" fill="#9caacb"/><path d="m56.19 59.65a15.78 15.78 0 0 1 -18.76 0 3 3 0 0 0 -1.75-.6 2.94 2.94 0 0 0 -1.93 5.3 21.79 21.79 0 0 0 26.12 0 3 3 0 0 0 -3.68-4.7z" fill="#606e94"/><circle cx="46.81" cy="46.85" fill="#7e87ad" r="3.97"/><path d="m46.81 5.94h42v19.07h-42z" fill="#cad2e4"/><path d="m46.81 18.93h42v6.08h-42z" fill="#b1b9d0"/><path d="m75.41 5.94h13.41v19.07h-13.41z" fill="#7e87ad"/><path d="m75.41 18.93h13.41v6.08h-13.41z" fill="#606e94"/><rect fill="#37375c" height="25.67" rx="2.59" width="6.18" x="88.81" y="2.64"/><rect fill="#46507a" height="19.33" rx="2.59" width="6.18" x="88.81" y="2.64"/><rect fill="#64739d" height="10.3" rx="2.59" width="6.18" x="88.81" y="2.64"/><circle cx="75.98" cy="36.8" fill="#7e87ad" r="2.84"/><circle cx="9.62" cy="9.66" fill="#37375c" r="8.6"/><path d="m5.78 9.66a3.83 3.83 0 1 1 6.54 2.71 3.83 3.83 0 0 1 -6.54-2.71z" fill="#cad2e4"/><rect fill="#fff" height="4.26" rx="2.13" width="18.4" x="50.26" y="10.13"/><rect fill="#9cb4d0" height="4.26" rx="2.13" width="6.14" x="79.47" y="10.13"/><path d="m19 85.13h-7.1a1.92 1.92 0 1 1 0-3.83h7.1a1.92 1.92 0 1 1 0 3.83z" fill="#9cb4d0"/><path d="m29 21.31c.75 0 1.38-1.1 5.65-2.94a1 1 0 0 0 .53-1.32 1 1 0 0 0 -1.31-.52 32.36 32.36 0 0 0 -5.43 2.95 1 1 0 0 0 .56 1.83zm-4.75 2.92a1 1 0 0 0 -1.41 0 32.74 32.74 0 0 0 -8.94 22.57 1 1 0 0 0 2 0 30.78 30.78 0 0 1 8.4-21.16 1 1 0 0 0 -.05-1.41zm38.98 48.77a30.9 30.9 0 0 1 -16.42 4.74 1 1 0 0 0 0 2 32.94 32.94 0 0 0 15.56-3.93c.79-.42 1.34-.77 1.93-1.12a1 1 0 0 0 .31-1.38 1 1 0 0 0 -1.38-.31zm-4.48-38.14a16.89 16.89 0 0 0 -23.94 23.82c0 .06.15.14.21.2a16.88 16.88 0 0 0 23.73-24zm-3.87 2.45-2 2-3.34 3.34a4.92 4.92 0 0 0 -1.73-.72v-9.93a14.8 14.8 0 0 1 8.78 3.64l-1.71 1.71zm-5.27 8.49a3 3 0 0 1 -3.8 3.81 3.09 3.09 0 0 1 -1.81-1.81 3 3 0 0 1 1.53-3.68.67.67 0 0 1 .18-.07h.09a2.84 2.84 0 0 1 1.91 0 1.26 1.26 0 0 1 .35.14 3 3 0 0 1 1.55 1.61zm-6.61-13.38a13.13 13.13 0 0 1 2.8-.46c0 13.72 0 7.66-.09 10a4.92 4.92 0 0 0 -1.64.71l-7.07-7.07a14.6 14.6 0 0 1 6-3.18zm-10.59 10.58a14.64 14.64 0 0 1 3.2-6l7 7.06a4.87 4.87 0 0 0 -.72 1.72h-9.89a14.05 14.05 0 0 1 .41-2.78zm9.53 4.8a4.92 4.92 0 0 0 .72 1.73c-3.77 3.76-.67.67-7 7.06a14.75 14.75 0 0 1 -3.66-8.79zm-4.62 10.45a1.68 1.68 0 0 1 -.32-.25l7-7a4.92 4.92 0 0 0 1.64.71c.08 2.16.09-3.32.09 10a14.73 14.73 0 0 1 -8.41-3.46zm13.29 3a14.79 14.79 0 0 1 -2.8.45v-10a4.92 4.92 0 0 0 1.73-.7l3.33 3.33 2 2c.41.4 1.26 1.26 1.72 1.72a15 15 0 0 1 -5.98 3.15zm10.59-10.64a15 15 0 0 1 -3.19 6c-1-1-6.19-6.2-7-7.05a5.05 5.05 0 0 0 .72-1.74h10a14.9 14.9 0 0 1 -.53 2.79zm.45-4.81h-10a4.92 4.92 0 0 0 -.65-1.73c1.9-1.91 4.72-4.72 7-7a14.8 14.8 0 0 1 3.64 8.78z" fill="#302d3d"/><path d="m92.4 1.59h-1a3.59 3.59 0 0 0 -3.57 3.3h-41a41.56 41.56 0 0 0 -22.15 6.35l-7.33-7.32a9.6 9.6 0 1 0 -13.45 13.41l7.31 7.31a41.63 41.63 0 0 0 -6.31 22.16v41a3.59 3.59 0 0 0 -3.31 3.6v1a3.6 3.6 0 0 0 3.6 3.6h20.48a3.59 3.59 0 0 0 3.59-3.59v-1a3.59 3.59 0 0 0 -3.26-3.58v-4.68a41.23 41.23 0 0 0 11.36 4.48v1.76a4.74 4.74 0 0 0 4.74 4.74h9.5a4.75 4.75 0 0 0 4.74-4.74v-1.76a41.7 41.7 0 0 0 12.66-5.25l1.25 1.25a4.77 4.77 0 0 0 6.7 0l6.72-6.72a4.75 4.75 0 0 0 1.33-3.35c0-2.33-1.44-3.42-2.65-4.61a41.38 41.38 0 0 0 5.26-12.66h1.76a4.74 4.74 0 0 0 4.74-4.74v-9.5a4.75 4.75 0 0 0 -4.74-4.74h-1.74a41.46 41.46 0 0 0 -4.47-11.31h4.67a3.59 3.59 0 0 0 3.57 3.3h1a3.59 3.59 0 0 0 3.6-3.63v-20.49a3.59 3.59 0 0 0 -3.6-3.59zm-87 1.69a7.5 7.5 0 0 1 9.42 1l.95 1a7.59 7.59 0 0 1 -10.57 10.51l-1-1a7.47 7.47 0 0 1 1.21-11.51zm3.16 15.87a9.61 9.61 0 0 0 10.59-10.59l3.8 3.8a42.13 42.13 0 0 0 -10.58 10.64zm6.73 55.25h-8.39v-14.81a42 42 0 0 0 8.39 14.81zm12 17v1a1.59 1.59 0 0 1 -1.62 1.6h-20.48a1.6 1.6 0 0 1 -1.6-1.59v-1a1.6 1.6 0 0 1 1.6-1.59h20.48a1.59 1.59 0 0 1 1.59 1.58zm-3.29-3.59h-17.1v-11.41h10.26a42.14 42.14 0 0 0 6.84 5.53zm30.3 1.58a2.74 2.74 0 0 1 -2.74 2.74h-9.5a2.74 2.74 0 0 1 -2.74-2.74v-1.34a42.36 42.36 0 0 0 15 0zm28.7-15.83a2.69 2.69 0 0 1 -.81 1.93l-6.69 6.72a2.8 2.8 0 0 1 -3.88 0l-1-1a42.29 42.29 0 0 0 10.63-10.55c.97.96 1.75 1.55 1.75 2.9zm6.37-34.25a2.74 2.74 0 0 1 2.74 2.74v9.5a2.74 2.74 0 0 1 -2.74 2.74h-1.32a42.36 42.36 0 0 0 0-15zm-21.87 41.61a39.79 39.79 0 0 1 -47.43-4.52c-19.77-17.58-16.89-49.87 6.04-63.71a39.67 39.67 0 0 1 20.7-5.8h27.59v17.11h-27.59a22.84 22.84 0 1 0 7.49 44.38 24.89 24.89 0 0 0 2.47-1c11.31-5.51 16-19.16 10.8-30a22.87 22.87 0 0 0 -11.44-11.38h24.7a39.9 39.9 0 0 1 -13.33 54.92zm-1.25-41.61a20.85 20.85 0 1 1 -27.9-11.55 20.85 20.85 0 0 1 27.9 11.55zm10.15-15.31v-17.11h11.41v17.11zm17.6 1.67a1.59 1.59 0 0 1 -1.59 1.59h-1a1.59 1.59 0 0 1 -1.59-1.59v-20.49a1.59 1.59 0 0 1 1.58-1.59h1a1.59 1.59 0 0 1 1.6 1.59z" fill="#302d3d"/><path d="m72.14 36.75a3.84 3.84 0 1 0 3.86-3.84 3.85 3.85 0 0 0 -3.86 3.84zm3.86-1.84a1.83 1.83 0 1 1 -1.74 2.4 1.83 1.83 0 0 1 1.74-2.4zm-66.39-20.47a4.83 4.83 0 1 0 -3.42-8.25 4.84 4.84 0 0 0 3.42 8.25zm-2-6.83a2.83 2.83 0 0 1 4 4 2.89 2.89 0 0 1 -4 0 2.82 2.82 0 0 1 0-4z" fill="#302d3d"/></svg>